<svg xmlns="http://www.w3.org/2000/svg" width="100%" height="100%" viewBox="0 0 800 800">
  <defs>
    <radialGradient id="dotGradient" cx="50%" cy="50%" r="50%">
      <stop offset="0%" stop-color="#6366f1" stop-opacity="0.8"/>
      <stop offset="100%" stop-color="#22d3ee" stop-opacity="0.2"/>
    </radialGradient>
  </defs>

  <!-- Dot grid, top to bottom sizes -->
  <!-- Loop manually replicated for example -->
  <!-- Top row: big dots -->
  <circle cx="50" cy="50" r="10" fill="url(#dotGradient)" />
  <circle cx="150" cy="50" r="10" fill="url(#dotGradient)" />
  <circle cx="250" cy="50" r="10" fill="url(#dotGradient)" />
  <circle cx="350" cy="50" r="10" fill="url(#dotGradient)" />
  <circle cx="450" cy="50" r="10" fill="url(#dotGradient)" />
  <circle cx="550" cy="50" r="10" fill="url(#dotGradient)" />
  <circle cx="650" cy="50" r="10" fill="url(#dotGradient)" />
  <circle cx="750" cy="50" r="10" fill="url(#dotGradient)" />

  <!-- Middle row: medium dots -->
  <circle cx="50" cy="200" r="6" fill="url(#dotGradient)" />
  <circle cx="150" cy="200" r="6" fill="url(#dotGradient)" />
  <circle cx="250" cy="200" r="6" fill="url(#dotGradient)" />
  <circle cx="350" cy="200" r="6" fill="url(#dotGradient)" />
  <circle cx="450" cy="200" r="6" fill="url(#dotGradient)" />
  <circle cx="550" cy="200" r="6" fill="url(#dotGradient)" />
  <circle cx="650" cy="200" r="6" fill="url(#dotGradient)" />
  <circle cx="750" cy="200" r="6" fill="url(#dotGradient)" />

  <!-- Bottom row: small dots -->
  <circle cx="50" cy="400" r="3" fill="url(#dotGradient)" />
  <circle cx="150" cy="400" r="3" fill="url(#dotGradient)" />
  <circle cx="250" cy="400" r="3" fill="url(#dotGradient)" />
  <circle cx="350" cy="400" r="3" fill="url(#dotGradient)" />
  <circle cx="450" cy="400" r="3" fill="url(#dotGradient)" />
  <circle cx="550" cy="400" r="3" fill="url(#dotGradient)" />
  <circle cx="650" cy="400" r="3" fill="url(#dotGradient)" />
  <circle cx="750" cy="400" r="3" fill="url(#dotGradient)" />

  <!-- You can add more rows downwards for full coverage -->
</svg>